<svg width="203" height="196" viewBox="0 0 203 196" fill="none" xmlns="http://www.w3.org/2000/svg">
<path d="M0.897727 160.215C-0.886704 163.242 0.0649927 167.186 3.0787 169.058L45.0723 195.032C48.1257 196.904 52.0911 195.988 53.9548 192.92C53.9548 192.88 53.9945 192.841 53.9945 192.841C80.6023 148.144 85.916 154.638 165.383 192.562C168.595 194.115 172.441 192.721 173.988 189.494C174.027 189.454 174.027 189.375 174.067 189.335L194.052 143.882C195.48 140.655 194.013 136.871 190.841 135.397C182.037 131.254 164.59 122.968 148.847 115.359C50.5446 67.3164 17.6714 133.564 0.897727 160.215ZM202.102 35.8856C203.887 32.858 202.935 28.9142 199.921 27.0419L157.967 1.10849C154.993 -0.88332 150.988 -0.12643 149.006 2.86129C148.926 2.9808 148.847 3.10031 148.768 3.25965C122.08 48.1153 116.608 41.3431 37.4984 3.61818C34.2864 2.06457 30.44 3.45883 28.8935 6.68557C28.8538 6.72541 28.8538 6.80508 28.8142 6.84492L8.78888 52.2981C7.36133 55.5249 8.82853 59.3093 12.0009 60.7833C20.804 64.9262 38.2915 73.2122 54.0341 80.8607C152.376 128.664 185.21 62.7751 202.102 35.8856Z" fill="black"/>
</svg>
