<svg width="181" height="208" viewBox="0 0 181 208" fill="none" xmlns="http://www.w3.org/2000/svg">
<g clip-path="url(#clip0_4_5)">
<path d="M90.5 104C76.7845 104 63.6308 98.5214 53.9325 88.7696C44.2342 79.0177 38.7857 65.7913 38.7857 52C38.7857 38.2087 44.2342 24.9823 53.9325 15.2304C63.6308 5.47856 76.7845 0 90.5 0C104.215 0 117.369 5.47856 127.068 15.2304C136.766 24.9823 142.214 38.2087 142.214 52C142.214 65.7913 136.766 79.0177 127.068 88.7696C117.369 98.5214 104.215 104 90.5 104ZM84.4801 145.925L76.9654 133.331C74.3797 128.984 77.4906 123.5 82.5004 123.5H90.5H98.4592C103.469 123.5 106.58 129.025 103.994 133.331L96.4795 145.925L109.974 196.259L124.518 136.581C125.326 133.291 128.478 131.137 131.75 131.991C160.072 139.141 181 164.897 181 195.528C181 202.434 175.425 208 168.597 208H115.347C114.499 208 113.731 207.837 113.004 207.553L113.125 208H67.875L67.9962 207.553C67.269 207.837 66.4609 208 65.6529 208H12.4033C5.57545 208 0 202.394 0 195.528C0 164.856 20.9685 139.1 49.2498 131.991C52.5223 131.178 55.6737 133.331 56.4817 136.581L71.0263 196.259L84.5205 145.925H84.4801Z" fill="black"/>
</g>
<defs>
<clipPath id="clip0_4_5">
<rect width="181" height="208" fill="white"/>
</clipPath>
</defs>
</svg>
