<svg width="221" height="186" viewBox="0 0 221 186" fill="none" xmlns="http://www.w3.org/2000/svg">
<path d="M46.3911 0C41.5699 0 37.6911 3.88711 37.6911 8.71875V51.6223L29.3536 43.2305C25.9461 39.8156 20.4361 39.8156 17.0649 43.2305C13.6936 46.6453 13.6574 52.1672 17.0649 55.5457L40.2649 78.7957C43.6724 82.2105 49.1824 82.2105 52.5536 78.7957L75.7536 55.5457C79.1611 52.1309 79.1611 46.609 75.7536 43.2305C72.3461 39.852 66.8361 39.8156 63.4649 43.2305L55.1274 51.5859V8.71875C55.1274 3.88711 51.2486 0 46.4274 0H46.3911ZM124.691 72.6562C124.691 68.8023 123.163 65.1062 120.444 62.3811C117.725 59.656 114.037 58.125 110.191 58.125C106.345 58.125 102.657 59.656 99.9381 62.3811C97.2188 65.1062 95.6911 68.8023 95.6911 72.6562C95.6911 76.5102 97.2188 80.2063 99.9381 82.9314C102.657 85.6565 106.345 87.1875 110.191 87.1875C114.037 87.1875 117.725 85.6565 120.444 82.9314C123.163 80.2063 124.691 76.5102 124.691 72.6562ZM60.8911 107.531C60.8911 103.677 59.3634 99.9812 56.6442 97.2561C53.9249 94.531 50.2368 93 46.3911 93C42.5455 93 38.8573 94.531 36.1381 97.2561C33.4188 99.9812 31.8911 103.677 31.8911 107.531C31.8911 111.385 33.4188 115.081 36.1381 117.806C38.8573 120.532 42.5455 122.062 46.3911 122.062C50.2368 122.062 53.9249 120.532 56.6442 117.806C59.3634 115.081 60.8911 111.385 60.8911 107.531ZM173.991 122.062C177.837 122.062 181.525 120.532 184.244 117.806C186.963 115.081 188.491 111.385 188.491 107.531C188.491 103.677 186.963 99.9812 184.244 97.2561C181.525 94.531 177.837 93 173.991 93C170.145 93 166.457 94.531 163.738 97.2561C161.019 99.9812 159.491 103.677 159.491 107.531C159.491 111.385 161.019 115.081 163.738 117.806C166.457 120.532 170.145 122.062 173.991 122.062ZM66.6911 160.389L76.4424 178.516C78.7261 182.767 83.9824 184.329 88.2236 182.077C92.4649 179.824 94.0236 174.52 91.7761 170.27L78.6174 145.748C79.2336 145.131 79.7774 144.441 80.1761 143.641L89.8911 125.514V145.312C89.8911 151.743 95.0749 156.938 101.491 156.938H118.891C125.307 156.938 130.491 151.743 130.491 145.312V125.514L140.242 143.641C140.677 144.441 141.185 145.131 141.801 145.748L128.642 170.27C126.359 174.52 127.954 179.788 132.195 182.077C136.436 184.365 141.692 182.767 143.976 178.516L153.691 160.389V174.375C153.691 180.805 158.875 186 165.291 186H182.691C189.107 186 194.291 180.805 194.291 174.375V160.389L204.042 178.516C206.326 182.767 211.582 184.329 215.824 182.077C220.065 179.824 221.624 174.52 219.376 170.27L205.637 144.731C200.091 134.378 189.289 127.911 177.544 127.911H170.439C164.53 127.911 158.875 129.546 153.981 132.489L141.801 109.856C136.255 99.5027 125.452 93.0363 113.707 93.0363H106.639C94.8936 93.0363 84.1274 99.5027 78.5449 109.856L66.3649 132.489C61.4711 129.546 55.8161 127.911 49.9074 127.911H42.8386C31.0936 127.911 20.3274 134.378 14.7449 144.731L1.04236 170.234C-1.24139 174.484 0.353613 179.752 4.59486 182.04C8.83611 184.329 14.0924 182.73 16.3761 178.48L26.0911 160.389V174.375C26.0911 180.805 31.2749 186 37.6911 186H55.0911C61.5074 186 66.6911 180.805 66.6911 174.375V160.389ZM144.629 55.582L167.829 78.832C171.236 82.2469 176.746 82.2469 180.117 78.832L203.317 55.582C206.725 52.1672 206.725 46.6453 203.317 43.2668C199.91 39.8883 194.4 39.852 191.029 43.2668L182.691 51.6223V8.71875C182.691 3.88711 178.812 0 173.991 0C169.17 0 165.291 3.88711 165.291 8.71875V51.6223L156.954 43.2668C153.546 39.852 148.036 39.852 144.665 43.2668C141.294 46.6816 141.257 52.2035 144.665 55.582H144.629Z" fill="black"/>
</svg>
