<svg width="152" height="203" viewBox="0 0 152 203" fill="none" xmlns="http://www.w3.org/2000/svg">
<g clip-path="url(#clip0_4_3)">
<path d="M25.3333 183.969C21.85 183.969 19 181.114 19 177.625V25.375C19 21.8859 21.85 19.0312 25.3333 19.0312H88.6667V50.75C88.6667 57.7678 94.3271 63.4375 101.333 63.4375H133V177.625C133 181.114 130.15 183.969 126.667 183.969H25.3333ZM25.3333 0C11.3604 0 0 11.3791 0 25.375V177.625C0 191.621 11.3604 203 25.3333 203H126.667C140.64 203 152 191.621 152 177.625V61.2568C152 54.5166 149.348 48.0539 144.598 43.2961L108.735 7.41426C103.985 2.65645 97.5729 0 90.8438 0H25.3333ZM47.5 101.5C42.2354 101.5 38 105.742 38 111.016C38 116.289 42.2354 120.531 47.5 120.531H104.5C109.765 120.531 114 116.289 114 111.016C114 105.742 109.765 101.5 104.5 101.5H47.5ZM47.5 139.562C42.2354 139.562 38 143.805 38 149.078C38 154.351 42.2354 158.594 47.5 158.594H104.5C109.765 158.594 114 154.351 114 149.078C114 143.805 109.765 139.562 104.5 139.562H47.5Z" fill="black"/>
</g>
<defs>
<clipPath id="clip0_4_3">
<rect width="152" height="203" fill="white"/>
</clipPath>
</defs>
</svg>
